<svg width="142" height="128" viewBox="0 0 142 128" fill="none" xmlns="http://www.w3.org/2000/svg">
<path d="M0.166664 127.667H14.3333C18.2292 127.667 21.4167 124.479 21.4167 120.583V56.8333C21.4167 52.9375 18.2292 49.75 14.3333 49.75H0.166664V127.667ZM140.629 77.2333C141.408 75.4625 141.833 73.55 141.833 71.5666V63.9166C141.833 56.125 135.458 49.75 127.667 49.75H88.7083L95.225 16.8125C95.5792 15.2541 95.3667 13.5541 94.6583 12.1375C93.0292 8.94996 90.975 6.04579 88.425 3.49579L85.1667 0.166626L39.7625 45.5708C37.0708 48.2625 35.5833 51.875 35.5833 55.6291V111.162C35.5833 120.229 43.0208 127.667 52.1583 127.667H109.604C114.563 127.667 119.238 125.046 121.787 120.796L140.629 77.2333Z" fill="white"/>
</svg>
